<?xml version="1.0" standalone="no"?>
<!DOCTYPE svg PUBLIC "-//W3C//DTD SVG 1.1//EN" "http://www.w3.org/Graphics/SVG/1.1/DTD/svg11.dtd" >
<svg xmlns="http://www.w3.org/2000/svg">
<metadata></metadata>
<defs>
<font id="nishuki_pixelsregular" horiz-adv-x="1536" >
<font-face units-per-em="2048" ascent="1638" descent="-410" />
<missing-glyph horiz-adv-x="512" />
<glyph horiz-adv-x="2048" />
<glyph horiz-adv-x="2048" />
<glyph unicode="&#xd;" horiz-adv-x="512" />
<glyph unicode=" "  horiz-adv-x="512" />
<glyph unicode="&#x09;" horiz-adv-x="512" />
<glyph unicode="&#xa0;" horiz-adv-x="512" />
<glyph unicode="!" horiz-adv-x="768" d="M256 0v256h256v-256h-256zM256 512v768h256v-768h-256z" />
<glyph unicode="&#x22;" horiz-adv-x="1024" d="M0 768v512h256v-512h-256zM512 768v512h256v-512h-256z" />
<glyph unicode="#" d="M0 0v512h256v256h-256v256h512v256h256v-256h256v256h256v-512h-256v-256h256v-256h-512v-256h-256v256h-256v-256h-256zM512 512h256v256h-256v-256z" />
<glyph unicode="$" d="M0 0v256h512v256h-256v256h256v256h-256v256h256v256h256v-256h512v-256h-512v-256h256v-256h-256v-256h256v-256h-256v-256h-256v256h-512zM0 768v256h256v-256h-256zM1024 256v256h256v-256h-256z" />
<glyph unicode="%" d="M0 0v256h256v-256h-256zM0 768v512h512v-512h-512zM256 256v256h256v-256h-256zM512 512v256h256v-256h-256zM768 0v512h512v-512h-512zM768 768v256h256v-256h-256zM1024 1024v256h256v-256h-256z" />
<glyph unicode="&#x26;" d="M0 256v512h256v-512h-256zM0 1024v256h256v-256h-256zM256 0v256h512v-256h-512zM256 768v256h256v-256h-256zM256 1280v256h256v-256h-256zM512 512v256h256v-256h-256zM512 1024v256h256v-256h-256zM768 256v256h256v-256h-256zM1024 0v256h256v-256h-256zM1024 512 v256h256v-256h-256z" />
<glyph unicode="'" horiz-adv-x="512" d="M0 768v512h256v-512h-256z" />
<glyph unicode="(" horiz-adv-x="768" d="M0 256v768h256v-768h-256zM256 0v256h256v-256h-256zM256 1024v256h256v-256h-256z" />
<glyph unicode=")" horiz-adv-x="768" d="M0 0v256h256v-256h-256zM0 1024v256h256v-256h-256zM256 256v768h256v-768h-256z" />
<glyph unicode="*" d="M0 512v256h256v-256h-256zM0 1024v256h512v512h256v-512h512v-256h-256v-256h-256v256h-256v-256h-256v256h-256zM1024 512v256h256v-256h-256z" />
<glyph unicode="+" horiz-adv-x="1024" d="M0 512v256h256v256h256v-256h256v-256h-256v-256h-256v256h-256z" />
<glyph unicode="," horiz-adv-x="768" d="M0 0h256v-256h-256v256zM0 256v256h512v-512h-256v256h-256z" />
<glyph unicode="-" horiz-adv-x="1024" d="M0 512v256h768v-256h-768z" />
<glyph unicode="." horiz-adv-x="768" d="M256 0v256h256v-256h-256z" />
<glyph unicode="/" horiz-adv-x="14592" d="M0 512v768h256v-768h-256zM256 256v256h256v-256h-256zM256 1280v256h256v-256h-256zM512 0v256h768v-256h-768zM512 512v768h768v-256h-512v-256h512v-256h-768zM512 1536v256h768v-256h-768zM1280 256v256h256v-256h-256zM1280 1280v256h256v-256h-256zM1536 512v768 h256v-768h-256zM2048 256v1280h256v-256h256v-256h-256v-768h-256zM2560 768v256h256v-256h-256zM2816 512v256h256v768h256v-1280h-256v256h-256zM3584 256v256h512v768h-512v256h1280v-256h-512v-768h512v-256h-1280zM5120 256v256h1024v-256h-1024zM5120 1024v256h256 v-256h-256zM5376 768v256h768v-256h-768zM5376 1280v256h1024v-256h-1024zM6144 512v256h256v-256h-256zM6656 256v1280h256v-512h768v512h256v-1280h-256v512h-768v-512h-256zM8192 512v1024h256v-1024h-256zM8448 256v256h768v-256h-768zM9216 512v1024h256v-1024h-256z M9728 256v1280h256v-512h256v-256h-256v-512h-256zM10240 512v256h256v-256h-256zM10240 1024v256h256v-256h-256zM10496 256v256h256v-256h-256zM10496 1280v256h256v-256h-256zM11008 256v256h512v768h-512v256h1280v-256h-512v-768h512v-256h-1280zM12544 512v768h256 v-768h-256zM12800 256v256h256v-256h-256zM12800 1280v256h256v-256h-256zM13056 0v256h768v-256h-768zM13056 512v768h768v-256h-512v-256h512v-256h-768zM13056 1536v256h768v-256h-768zM13824 256v256h256v-256h-256zM13824 1280v256h256v-256h-256zM14080 512v768h256 v-768h-256z" />
<glyph unicode="0" horiz-adv-x="1024" d="M0 0v1280h768v-1280h-768zM256 256h256v768h-256v-768z" />
<glyph unicode="1" horiz-adv-x="1024" d="M0 0v256h256v512h-256v256h256v256h256v-1024h256v-256h-768z" />
<glyph unicode="2" horiz-adv-x="1024" d="M0 0v512h256v-256h512v-256h-768zM0 1024v256h768v-512h-256v256h-512zM256 512v256h256v-256h-256z" />
<glyph unicode="3" horiz-adv-x="1024" d="M0 0v256h512v256h-256v256h256v256h-512v256h768v-1280h-768z" />
<glyph unicode="4" horiz-adv-x="1024" d="M0 512v768h256v-512h256v512h256v-1280h-256v512h-512z" />
<glyph unicode="5" horiz-adv-x="1024" d="M0 0v256h512v-256h-512zM0 512v768h768v-256h-512v-256h256v-256h-512zM512 256v256h256v-256h-256z" />
<glyph unicode="6" horiz-adv-x="1024" d="M0 256v768h256v-256h256v-256h-256v-256h-256zM256 0v256h256v-256h-256zM256 1024v256h512v-256h-512zM512 256v256h256v-256h-256z" />
<glyph unicode="7" horiz-adv-x="1024" d="M0 0v512h256v-512h-256zM0 1024v256h768v-512h-256v256h-512zM256 512v256h256v-256h-256z" />
<glyph unicode="8" horiz-adv-x="1024" d="M0 256v256h256v-256h-256zM0 768v256h256v-256h-256zM256 0v256h256v-256h-256zM256 512v256h256v-256h-256zM256 1024v256h256v-256h-256zM512 256v256h256v-256h-256zM512 768v256h256v-256h-256z" />
<glyph unicode="9" horiz-adv-x="1024" d="M0 0v256h512v-256h-512zM0 768v256h256v-256h-256zM256 512v256h256v256h256v-768h-256v256h-256zM256 1024v256h256v-256h-256z" />
<glyph unicode=":" horiz-adv-x="512" d="M0 256v256h256v-256h-256zM0 768v256h256v-256h-256z" />
<glyph unicode=";" horiz-adv-x="768" d="M0 0v256h256v-256h-256zM0 512v256h512v-512h-256v256h-256zM0 1024v256h256v-256h-256z" />
<glyph unicode="&#x3c;" horiz-adv-x="1024" d="M0 512v256h256v-256h-256zM256 256v256h256v-256h-256zM256 768v256h256v-256h-256zM512 0v256h256v-256h-256zM512 1024v256h256v-256h-256z" />
<glyph unicode="=" horiz-adv-x="1024" d="M0 256v256h768v-256h-768zM0 768v256h768v-256h-768z" />
<glyph unicode="&#x3e;" horiz-adv-x="1024" d="M0 0v256h256v-256h-256zM0 1024v256h256v-256h-256zM256 256v256h256v-256h-256zM256 768v256h256v-256h-256zM512 512v256h256v-256h-256z" />
<glyph unicode="?" horiz-adv-x="1024" d="M0 1024v256h512v-256h-512zM256 0v256h256v-256h-256zM256 512v256h256v-256h-256zM512 768v256h256v-256h-256z" />
<glyph unicode="@" d="M0 256v768h256v-256h256v-256h-256v-256h-256zM256 0v256h256v256h256v-256h256v-256h-768zM256 1024v256h768v-256h-256v-256h-256v256h-256zM768 512v256h256v256h256v-512h-512z" />
<glyph unicode="A" d="M0 0v1280h1280v-1280h-256v512h-768v-512h-256zM256 768h768v256h-768v-256z" />
<glyph unicode="B" d="M0 0v1280h1024v-256h-768v-256h768v-256h-768v-256h768v-256h-1024zM1024 256v256h256v-256h-256zM1024 768v256h256v-256h-256z" />
<glyph unicode="C" d="M0 0v1280h1280v-256h-1024v-768h1024v-256h-1280z" />
<glyph unicode="D" d="M0 0v1280h1024v-256h-768v-768h768v-256h-1024zM1024 256v768h256v-768h-256z" />
<glyph unicode="E" d="M0 0v1280h1280v-256h-1024v-256h512v-256h-512v-256h1024v-256h-1280z" />
<glyph unicode="F" d="M0 0v1280h1280v-256h-1024v-256h512v-256h-512v-512h-256z" />
<glyph unicode="G" d="M0 0v1280h1280v-256h-1024v-768h768v256h-512v256h768v-768h-1280z" />
<glyph unicode="H" d="M0 0v1280h256v-512h768v512h256v-1280h-256v512h-768v-512h-256z" />
<glyph unicode="I" d="M0 0v256h512v768h-512v256h1280v-256h-512v-768h512v-256h-1280z" />
<glyph unicode="J" d="M0 0v256h512v768h-512v256h1280v-256h-512v-1024h-768z" />
<glyph unicode="K" horiz-adv-x="1280" d="M0 0v1280h256v-512h256v-256h-256v-512h-256zM512 256v256h256v-256h-256zM512 768v256h256v-256h-256zM768 0v256h256v-256h-256zM768 1024v256h256v-256h-256z" />
<glyph unicode="L" d="M0 0v1280h256v-1024h1024v-256h-1280z" />
<glyph unicode="M" d="M0 0v1280h256v-256h256v-256h-256v-768h-256zM512 512v256h256v-256h-256zM768 768v256h256v256h256v-1280h-256v768h-256z" />
<glyph unicode="N" d="M0 0v1280h256v-256h256v-256h-256v-768h-256zM512 512v256h256v-256h-256zM768 256v256h256v768h256v-1280h-256v256h-256z" />
<glyph unicode="O" d="M0 256v768h256v-768h-256zM256 0v256h768v-256h-768zM256 1024v256h768v-256h-768zM1024 256v768h256v-768h-256z" />
<glyph unicode="P" d="M0 0v1280h1024v-256h-768v-256h768v-256h-768v-512h-256zM1024 768v256h256v-256h-256z" />
<glyph unicode="Q" d="M0 256v768h256v-768h-256zM256 0v256h768v-256h-768zM256 1024v256h768v-256h-768zM1024 0h256v-256h-256v256zM1024 256v768h256v-768h-256z" />
<glyph unicode="R" d="M0 0v1280h1024v-256h-768v-256h768v-512h-256v256h-512v-512h-256zM1024 0v256h256v-256h-256zM1024 768v256h256v-256h-256z" />
<glyph unicode="S" d="M0 0v256h1024v-256h-1024zM0 768v256h256v-256h-256zM256 512v256h768v-256h-768zM256 1024v256h1024v-256h-1024zM1024 256v256h256v-256h-256z" />
<glyph unicode="T" d="M0 1024v256h1280v-256h-512v-1024h-256v1024h-512z" />
<glyph unicode="U" d="M0 256v1024h256v-1024h-256zM256 0v256h768v-256h-768zM1024 256v1024h256v-1024h-256z" />
<glyph unicode="V" d="M0 512v768h256v-768h-256zM256 256v256h256v-256h-256zM512 0v256h256v-256h-256zM768 256v256h256v-256h-256zM1024 512v768h256v-768h-256z" />
<glyph unicode="W" d="M0 256v1024h256v-1024h-256zM256 0v256h256v-256h-256zM512 256v512h256v-512h-256zM768 0v256h256v-256h-256zM1024 256v1024h256v-1024h-256z" />
<glyph unicode="X" d="M0 0v256h256v-256h-256zM0 1024v256h256v-256h-256zM256 256v256h256v-256h-256zM256 768v256h256v-256h-256zM512 512v256h256v-256h-256zM768 256v256h256v-256h-256zM768 768v256h256v-256h-256zM1024 0v256h256v-256h-256zM1024 1024v256h256v-256h-256z" />
<glyph unicode="Y" d="M0 1024v256h256v-256h-256zM256 768v256h256v-256h-256zM512 0v768h256v-768h-256zM768 768v256h256v-256h-256zM1024 1024v256h256v-256h-256z" />
<glyph unicode="Z" d="M0 0v256h256v256h256v-256h768v-256h-1280zM0 1024v256h1280v-256h-256v-256h-256v256h-768zM512 512v256h256v-256h-256z" />
<glyph unicode="[" horiz-adv-x="768" d="M0 0v1280h512v-256h-256v-768h256v-256h-512z" />
<glyph unicode="\" horiz-adv-x="25088" d="M256 0v1280h256v-512h768v512h256v-1280h-256v512h-768v-512h-256zM1792 0v256h512v768h-512v256h1280v-256h-512v-768h512v-256h-1280zM3328 0v1280h1024v-256h-768v-256h768v-512h-256v256h-512v-512h-256zM4352 0v256h256v-256h-256zM4352 768v256h256v-256h-256z M4864 256v1024h256v-1024h-256zM5120 0v256h768v-256h-768zM5888 256v1024h256v-1024h-256zM6400 0v1280h256v-256h256v-256h-256v-768h-256zM6912 512v256h256v-256h-256zM7168 768v256h256v256h256v-1280h-256v768h-256zM7936 0v1024h256v-256h768v256h256v-1024h-256v512 h-768v-512h-256zM8192 1024v256h768v-256h-768zM9472 512v256h768v-256h-768zM10496 0v1024h256v-256h768v256h256v-1024h-256v512h-768v-512h-256zM10752 1024v256h768v-256h-768zM12032 1024v256h256v-256h-256zM12288 768v256h256v-256h-256zM12544 0v768h256v-768h-256z M12800 768v256h256v-256h-256zM13056 1024v256h256v-256h-256zM13568 0v1024h256v-256h768v256h256v-1024h-256v512h-768v-512h-256zM13824 1024v256h768v-256h-768zM15104 0v1280h256v-1024h1024v-256h-1280zM16640 512v256h768v-256h-768zM17664 0v1280h256v-512h256v-256 h-256v-512h-256zM18176 256v256h256v-256h-256zM18176 768v256h256v-256h-256zM18432 0v256h256v-256h-256zM18432 1024v256h256v-256h-256zM18944 0v1024h256v-256h768v256h256v-1024h-256v512h-768v-512h-256zM19200 1024v256h768v-256h-768zM20480 1024v256h1280v-256 h-512v-1024h-256v1024h-512zM22016 0v256h1024v-256h-1024zM22016 768v256h256v-256h-256zM22272 512v256h768v-256h-768zM22272 1024v256h1024v-256h-1024zM23040 256v256h256v-256h-256zM23552 256v1024h256v-1024h-256zM23808 0v256h768v-256h-768zM24576 256v1024h256 v-1024h-256z" />
<glyph unicode="]" horiz-adv-x="768" d="M0 0v256h256v768h-256v256h512v-1280h-512z" />
<glyph unicode="^" horiz-adv-x="1024" d="M0 768v256h256v-256h-256zM256 1024v256h256v-256h-256zM512 768v256h256v-256h-256z" />
<glyph unicode="_" horiz-adv-x="1024" d="M0 0v256h768v-256h-768z" />
<glyph unicode="`" horiz-adv-x="768" d="M0 1792v256h256v-256h-256zM256 1536v256h256v-256h-256z" />
<glyph unicode="a" d="M0 0v1024h256v-256h768v256h256v-1024h-256v512h-768v-512h-256zM256 1024v256h768v-256h-768z" />
<glyph unicode="b" d="M0 0v1280h1024v-256h-768v-768h768v-256h-1024zM512 512v256h512v-256h-512zM1024 256v256h256v-256h-256zM1024 768v256h256v-256h-256z" />
<glyph unicode="c" d="M0 0v1280h1280v-256h-1024v-768h1024v-256h-1280z" />
<glyph unicode="d" d="M0 0v1280h1024v-256h-768v-768h768v-256h-1024zM1024 256v768h256v-768h-256z" />
<glyph unicode="e" d="M0 0v1280h1280v-256h-1024v-256h512v-256h-512v-256h1024v-256h-1280z" />
<glyph unicode="f" d="M0 0v1280h1280v-256h-1024v-256h512v-256h-512v-512h-256z" />
<glyph unicode="g" d="M0 0v1280h1280v-256h-1024v-768h768v256h-512v256h768v-768h-1280z" />
<glyph unicode="h" d="M0 0v1280h256v-512h768v512h256v-1280h-256v512h-768v-512h-256z" />
<glyph unicode="i" d="M0 0v256h512v768h-512v256h1280v-256h-512v-768h512v-256h-1280z" />
<glyph unicode="j" d="M0 0v256h512v768h-512v256h1280v-256h-512v-1024h-768z" />
<glyph unicode="k" horiz-adv-x="1280" d="M0 0v1280h256v-512h256v-256h-256v-512h-256zM512 256v256h256v-256h-256zM512 768v256h256v-256h-256zM768 0v256h256v-256h-256zM768 1024v256h256v-256h-256z" />
<glyph unicode="l" d="M0 0v1280h256v-1024h1024v-256h-1280z" />
<glyph unicode="m" d="M0 0v1280h512v-256h-256v-1024h-256zM512 768v256h256v-256h-256zM768 1024v256h512v-1280h-256v1024h-256z" />
<glyph unicode="n" d="M0 0v1280h256v-256h256v-256h-256v-768h-256zM512 512v256h256v-256h-256zM768 256v256h256v768h256v-1280h-256v256h-256z" />
<glyph unicode="o" d="M0 256v768h256v-768h-256zM256 0v256h768v-256h-768zM256 1024v256h768v-256h-768zM1024 256v768h256v-768h-256z" />
<glyph unicode="p" d="M0 0v1024h256v-256h768v-256h-768v-512h-256zM256 1024v256h768v-256h-768zM1024 768v256h256v-256h-256z" />
<glyph unicode="q" d="M0 256v768h256v-768h-256zM256 0v256h768v-256h-768zM256 1024v256h768v-256h-768zM1024 0h256v-256h-256v256zM1024 256v768h256v-768h-256z" />
<glyph unicode="r" d="M0 0v1024h256v-256h768v-512h-256v256h-512v-512h-256zM256 1024v256h768v-256h-768zM1024 0v256h256v-256h-256zM1024 768v256h256v-256h-256z" />
<glyph unicode="s" d="M0 0v256h1024v256h-1024v768h1280v-256h-1024v-256h1024v-768h-1280z" />
<glyph unicode="t" d="M0 1024v256h1280v-256h-512v-1024h-256v1024h-512z" />
<glyph unicode="u" d="M0 256v1024h256v-1024h-256zM256 0v256h768v1024h256v-1280h-1024z" />
<glyph unicode="v" d="M0 512v768h256v-768h-256zM256 256v256h256v-256h-256zM512 0v256h256v-256h-256zM768 256v256h256v-256h-256zM1024 512v768h256v-768h-256z" />
<glyph unicode="w" d="M0 256v1024h256v-1024h-256zM256 0v256h256v-256h-256zM512 256v512h256v-512h-256zM768 0v256h256v-256h-256zM1024 256v1024h256v-1024h-256z" />
<glyph unicode="x" d="M0 0v256h256v-256h-256zM0 1024v256h256v-256h-256zM256 256v256h256v-256h-256zM256 768v256h256v-256h-256zM512 512v256h256v-256h-256zM768 256v256h256v-256h-256zM768 768v256h256v-256h-256zM1024 0v256h256v-256h-256zM1024 1024v256h256v-256h-256z" />
<glyph unicode="y" d="M0 1024v256h256v-256h-256zM256 768v256h256v-256h-256zM512 0v768h256v-768h-256zM768 768v256h256v-256h-256zM1024 1024v256h256v-256h-256z" />
<glyph unicode="z" d="M0 0v256h256v256h256v-256h768v-256h-1280zM0 1024v256h1280v-256h-256v-256h-256v256h-768zM512 512v256h256v-256h-256z" />
<glyph unicode="{" horiz-adv-x="1024" d="M0 512v256h256v-256h-256zM256 0v512h256v-256h256v-256h-512zM256 768v512h512v-256h-256v-256h-256z" />
<glyph unicode="|" horiz-adv-x="512" d="M0 0v1280h256v-1280h-256z" />
<glyph unicode="}" horiz-adv-x="1024" d="M0 0v256h256v256h256v-512h-512zM0 1024v256h512v-512h-256v256h-256zM512 512v256h256v-256h-256z" />
<glyph unicode="~" d="M0 512v256h256v-256h-256zM256 768v256h256v-256h-256zM512 512v256h256v-256h-256zM768 256v256h256v-256h-256zM1024 512v256h256v-256h-256z" />
<glyph unicode="&#xad;" horiz-adv-x="1024" d="M0 512v256h768v-256h-768z" />
<glyph unicode="&#x2000;" horiz-adv-x="1024" />
<glyph unicode="&#x2001;" horiz-adv-x="2048" />
<glyph unicode="&#x2002;" horiz-adv-x="1024" />
<glyph unicode="&#x2003;" horiz-adv-x="2048" />
<glyph unicode="&#x2004;" horiz-adv-x="682" />
<glyph unicode="&#x2005;" horiz-adv-x="512" />
<glyph unicode="&#x2006;" horiz-adv-x="341" />
<glyph unicode="&#x2007;" horiz-adv-x="341" />
<glyph unicode="&#x2008;" horiz-adv-x="256" />
<glyph unicode="&#x2009;" horiz-adv-x="409" />
<glyph unicode="&#x200a;" horiz-adv-x="113" />
<glyph unicode="&#x2010;" horiz-adv-x="1024" d="M0 512v256h768v-256h-768z" />
<glyph unicode="&#x2011;" horiz-adv-x="1024" d="M0 512v256h768v-256h-768z" />
<glyph unicode="&#x2012;" horiz-adv-x="1024" d="M0 512v256h768v-256h-768z" />
<glyph unicode="&#x2013;" horiz-adv-x="1280" d="M0 512v256h1024v-256h-1024z" />
<glyph unicode="&#x2014;" horiz-adv-x="2304" d="M0 512v256h2048v-256h-2048z" />
<glyph unicode="&#x2018;" horiz-adv-x="768" d="M0 768v512h256v-256h256v-256h-512zM256 1280v256h256v-256h-256z" />
<glyph unicode="&#x2019;" horiz-adv-x="768" d="M0 768v256h256v-256h-256zM0 1280v256h512v-512h-256v256h-256z" />
<glyph unicode="&#x201c;" d="M0 768v512h256v-256h256v-256h-512zM256 1280v256h256v-256h-256zM768 768v512h256v-256h256v-256h-512zM1024 1280v256h256v-256h-256z" />
<glyph unicode="&#x201d;" d="M0 768v256h256v-256h-256zM0 1280v256h512v-512h-256v256h-256zM768 768v256h256v-256h-256zM768 1280v256h512v-512h-256v256h-256z" />
<glyph unicode="&#x202f;" horiz-adv-x="409" />
<glyph unicode="&#x205f;" horiz-adv-x="512" />
<glyph unicode="&#xe000;" horiz-adv-x="1280" d="M0 0v1280h1280v-1280h-1280z" />
</font>
</defs>
</svg>
